<svg xmlns="http://www.w3.org/2000/svg" xmlns:xlink="http://www.w3.org/1999/xlink" version="1.1" id="Layer_1" x="0px" y="0px" width="200px" height="200px" viewBox="0 0 200 200" enable-background="new 0 0 200 200" xml:space="preserve">
<path fill="#ED1C24" d="M36.367 49.635c-6.665 12.957-1.907 21.3 5.5 24.483C65.239 84.2 99.4 60.1 112.1 53.2 c9.996-4.863 23.146-13.667 48.454-5.023c17.793 6.1 26.4 22.5 27.9 34.201c0 0-0.665-40.374-37.649-50.085 c-12.694-3.333-29.505-1.621-36.179 0.2c-1.811 0.495-11.52 2.737-13.888 2.06C95.474 6 81.9 4.5 79.7 4.1 c-2.441-0.458-5.637 6.497-5.637 6.497s2.985 2.6 8.2 1.68c5.328-2.269 13.1 12 14.6 22.3 c-2.692 0.291-9.954-1.31-10.37-1.412c-53.641-12.845-71.981 26.84-73.148 47.59C18.787 59.5 31.7 51.6 36.4 49.6"/>
<path fill="#ED1C24" d="M122.029 153.211c-12.996 4.866-12.764 12.646-34.755 21.883c-18.313 7.691-42.408 6.464-67.405-34.538 c18.249 43.8 32.4 53.8 54.2 53.821c11.346 0 21.151-7.122 27.965-7.129c12.102-0.016 21.8 7.6 29.1 7.8 c19.662 0.5 32.996-11.182 49.652-54.115C156.093 177.8 146 143 122 153.2"/>
<path fill="#ED1C24" d="M103.591 28.843c0 0 0.5 1.9 2.1 1.978c1.602 0 25.118-8.812 26.333-12.047 c1.205-3.235 0.881-11.614-1.12-13.156C128.853 4.1 111.4 8.7 103.6 28.8"/>
<polygon fill="#ED1C24" points="117.5,99.2 139.4,99.2 139.4,88.7 104.6,88.7 104.6,137 139.4,137 139.4,126.4 117.5,126.4 117.5,117.9 133.9,117.9 133.9,107.3 117.5,107.3"/>
<path fill="#ED1C24" d="M174.763 88.643c-0.278 7.178-0.167 13.989-1.918 22.738c-4.313-8.235-10.901-22.728-10.901-22.728h-15.69 v48.363h12.103l0.042-26.063l12.928 26.063l10.77-0.102c1.251-4.05 6.503-27.963 5.998-48.222 C188.093 88.7 179.4 88.6 174.8 88.6"/>
<path fill="#ED1C24" d="M92.797 93.411c-3.604-3.33-8.681-4.758-14.123-4.758l-19.708-0.062v48.35l19.708 0.1 c5.442 0 10.519-1.428 14.123-4.754c6.106-5.639 5.438-11.821 5.438-19.424C98.235 105.2 98.9 99 92.8 93.4 M83.972 123.702c-1.18 1.631-2.944 2.715-6.181 2.715h-8.117l0.208-27.168h7.909c3.237 0 5 1.1 6.2 2.7 c1.026 1.4 1.4 2.7 1.4 10.871C85.367 121.1 85 122.3 84 123.7"/>
<path fill="#ED1C24" d="M29.368 117.933h16.115v-10.472l-16.115-0.017v-8.038l21.75 0.046l0.061-10.868l-37.556-0.053 c0.368 18.7 1.8 33.8 5.2 48.379h32.309v-10.494H29.368V117.933z"/>
</svg>
