<?xml version="1.0" encoding="utf-8"?>
<!-- Generator: Adobe Illustrator 18.0.0, SVG Export Plug-In . SVG Version: 6.00 Build 0)  -->
<!DOCTYPE svg PUBLIC "-//W3C//DTD SVG 1.1//EN" "http://www.w3.org/Graphics/SVG/1.1/DTD/svg11.dtd">
<svg version="1.1" id="Layer_1" xmlns="http://www.w3.org/2000/svg" xmlns:xlink="http://www.w3.org/1999/xlink" x="0px" y="0px"
	 viewBox="0 0 200 200" enable-background="new 0 0 200 200" xml:space="preserve">
<path fill="#FFFFFF" d="M36.4,49.6c-6.7,13-1.9,21.3,5.5,24.5c23.4,10.1,57.5-14,70.2-20.9c10-4.9,23.1-13.7,48.5-5
	c17.8,6.1,26.4,22.5,27.9,34.2c0,0-0.7-40.4-37.6-50.1c-12.7-3.3-29.5-1.6-36.2,0.2c-1.8,0.5-11.5,2.7-13.9,2.1
	C95.5,6,81.9,4.5,79.7,4.1c-2.4-0.5-5.6,6.5-5.6,6.5s3,2.6,8.2,1.7c5.3-2.3,13.1,12,14.6,22.3c-2.7,0.3-10-1.3-10.4-1.4
	C32.9,20.3,14.5,60,13.3,80.8C18.8,59.5,31.7,51.6,36.4,49.6"/>
<path fill="#FFFFFF" d="M122,153.2c-13,4.9-12.8,12.6-34.8,21.9c-18.3,7.7-42.4,6.5-67.4-34.5c18.2,43.8,32.4,53.8,54.2,53.8
	c11.3,0,21.2-7.1,28-7.1c12.1,0,21.8,7.6,29.1,7.8c19.7,0.5,33-11.2,49.7-54.1C156.1,177.8,146,143,122,153.2"/>
<path fill="#FFFFFF" d="M103.6,28.8c0,0,0.5,1.9,2.1,2c1.6,0,25.1-8.8,26.3-12c1.2-3.2,0.9-11.6-1.1-13.2
	C128.9,4.1,111.4,8.7,103.6,28.8"/>
<polygon fill="#FFFFFF" points="117.5,99.2 139.4,99.2 139.4,88.7 104.6,88.7 104.6,137 139.4,137 139.4,126.4 117.5,126.4 
	117.5,117.9 133.9,117.9 133.9,107.3 117.5,107.3 "/>
<path fill="#FFFFFF" d="M174.8,88.6c-0.3,7.2-0.2,14-1.9,22.7c-4.3-8.2-10.9-22.7-10.9-22.7h-15.7V137h12.1l0-26.1l12.9,26.1
	l10.8-0.1c1.3-4.1,6.5-28,6-48.2C188.1,88.7,179.4,88.6,174.8,88.6"/>
<path fill="#FFFFFF" d="M92.8,93.4c-3.6-3.3-8.7-4.8-14.1-4.8L59,88.6v48.4l19.7,0.1c5.4,0,10.5-1.4,14.1-4.8
	c6.1-5.6,5.4-11.8,5.4-19.4C98.2,105.2,98.9,99,92.8,93.4 M84,123.7c-1.2,1.6-2.9,2.7-6.2,2.7h-8.1l0.2-27.2h7.9
	c3.2,0,5,1.1,6.2,2.7c1,1.4,1.4,2.7,1.4,10.9C85.4,121.1,85,122.3,84,123.7"/>
<path fill="#FFFFFF" d="M29.4,117.9h16.1v-10.5l-16.1,0v-8l21.8,0l0.1-10.9l-37.6-0.1c0.4,18.7,1.8,33.8,5.2,48.4h32.3v-10.5H29.4
	V117.9z"/>
</svg>
