<?xml version="1.0" encoding="utf-8"?>
<!-- Generator: Adobe Illustrator 15.0.2, SVG Export Plug-In . SVG Version: 6.00 Build 0)  -->
<!DOCTYPE svg PUBLIC "-//W3C//DTD SVG 1.1//EN" "http://www.w3.org/Graphics/SVG/1.1/DTD/svg11.dtd">
<svg version="1.1" id="Layer_1" xmlns="http://www.w3.org/2000/svg" xmlns:xlink="http://www.w3.org/1999/xlink" x="0px" y="0px"
	 width="200px" height="200px" viewBox="0 0 200 200" enable-background="new 0 0 200 200" xml:space="preserve">
<path fill="#FFFFFF" d="M36.367,49.635c-6.665,12.957-1.907,21.267,5.513,24.483C65.239,84.239,99.44,60.1,112.068,53.214
	c9.996-4.863,23.146-13.667,48.453-5.023c17.793,6.077,26.401,22.528,27.901,34.201c0,0-0.665-40.374-37.649-50.085
	c-12.693-3.333-29.504-1.621-36.178,0.2c-1.812,0.495-11.521,2.737-13.889,2.06C95.474,6.021,81.911,4.501,79.735,4.098
	c-2.441-0.458-5.637,6.497-5.637,6.497s2.985,2.593,8.206,1.68c5.328-2.269,13.077,11.981,14.584,22.299
	c-2.692,0.291-9.954-1.31-10.37-1.412c-53.641-12.845-71.981,26.84-73.148,47.59C18.787,59.521,31.703,51.574,36.367,49.635"/>
<path fill="#FFFFFF" d="M122.029,153.211c-12.996,4.866-12.764,12.646-34.755,21.883c-18.313,7.691-42.408,6.465-67.405-34.537
	c18.249,43.756,32.361,53.82,54.168,53.82c11.346,0,21.151-7.122,27.965-7.129c12.102-0.016,21.823,7.591,29.1,7.764
	c19.662,0.469,32.996-11.182,49.652-54.115C156.093,177.848,146.027,143.005,122.029,153.211"/>
<path fill="#FFFFFF" d="M103.591,28.843c0,0,0.455,1.938,2.054,1.978c1.602,0.042,25.117-8.812,26.332-12.047
	c1.205-3.235,0.881-11.614-1.119-13.156C128.854,4.072,111.423,8.702,103.591,28.843"/>
<polygon fill="#FFFFFF" points="117.49,99.249 139.37,99.249 139.37,88.653 104.622,88.653 104.622,137.016 139.37,137.016 
	139.37,126.417 117.49,126.417 117.49,117.934 133.908,117.934 133.908,107.33 117.49,107.33 "/>
<path fill="#FFFFFF" d="M174.764,88.643c-0.279,7.178-0.168,13.989-1.918,22.738c-4.313-8.234-10.902-22.728-10.902-22.728h-15.689
	v48.363h12.104l0.041-26.063l12.929,26.063l10.771-0.102c1.25-4.05,6.502-27.963,5.998-48.222
	C188.093,88.692,179.363,88.643,174.764,88.643"/>
<path fill="#FFFFFF" d="M92.797,93.411c-3.604-3.33-8.681-4.758-14.123-4.758l-19.708-0.062v48.351l19.708,0.074
	c5.442,0,10.519-1.428,14.123-4.754c6.106-5.639,5.438-11.82,5.438-19.424C98.235,105.229,98.903,99.049,92.797,93.411
	 M83.972,123.702c-1.18,1.631-2.944,2.715-6.181,2.715h-8.117l0.208-27.168h7.909c3.237,0,5,1.087,6.181,2.718
	c1.026,1.358,1.395,2.715,1.395,10.871C85.367,121.053,84.999,122.348,83.972,123.702"/>
<path fill="#FFFFFF" d="M29.368,117.934h16.115v-10.473l-16.115-0.018v-8.037l21.75,0.046l0.061-10.868l-37.556-0.053
	c0.368,18.703,1.75,33.792,5.247,48.379h32.309v-10.494H29.368V117.934z"/>
</svg>
