<?xml version="1.0" encoding="utf-8"?>
<!-- Generator: Adobe Illustrator 15.0.2, SVG Export Plug-In . SVG Version: 6.00 Build 0)  -->
<svg version="1.2" baseProfile="tiny" id="Layer_1" xmlns="http://www.w3.org/2000/svg" xmlns:xlink="http://www.w3.org/1999/xlink"
	 x="0px" y="0px" width="50px" height="50px" viewBox="0 0 50 50" xml:space="preserve">
<g>
	<path fill="#FFFFFF" d="M0,0v50h50V0H0z M35.813,20.388c0.011,0.227,0.016,0.453,0.016,0.681c0,6.951-5.291,14.968-14.968,14.968
		c-2.971,0-5.736-0.872-8.063-2.365c0.411,0.05,0.83,0.074,1.255,0.074c2.465,0,4.733-0.84,6.533-2.252
		c-2.302-0.042-4.245-1.563-4.914-3.653c0.321,0.062,0.651,0.095,0.99,0.095c0.479,0,0.944-0.064,1.385-0.184
		c-2.406-0.484-4.219-2.61-4.219-5.16c0-0.021,0-0.043,0.001-0.066c0.708,0.394,1.519,0.631,2.382,0.658
		c-1.412-0.943-2.34-2.553-2.34-4.378c0-0.965,0.259-1.869,0.712-2.645c2.594,3.182,6.471,5.276,10.843,5.496
		c-0.09-0.385-0.136-0.787-0.136-1.199c0-2.906,2.355-5.261,5.26-5.261c1.513,0,2.881,0.639,3.84,1.661
		c1.199-0.235,2.324-0.674,3.341-1.276c-0.393,1.229-1.227,2.259-2.313,2.91c1.063-0.127,2.078-0.41,3.021-0.828
		C37.732,18.721,36.842,19.647,35.813,20.388z"/>
</g>
</svg>
